<?xml version="1.0" encoding="UTF-8"?>
<svg version="1.1" xmlns="http://www.w3.org/2000/svg" width="3000" height="3000">
<path d="M0 0 C583.77 0 1167.54 0 1769 0 C1767.05295852 3.89408296 1764.75955786 6.81758995 1761.9375 10.0625 C1760.93412516 11.23110957 1759.93153143 12.40039022 1758.9296875 13.5703125 C1758.43178711 14.15071289 1757.93388672 14.73111328 1757.42089844 15.32910156 C1755.43117984 17.66890123 1753.49579403 20.05097953 1751.5625 22.4375 C1747.15086945 27.85570579 1742.60676358 33.1527085 1738.05078125 38.44921875 C1731.80572679 45.71031003 1725.6036885 53.00553429 1719.5625 60.4375 C1715.15086945 65.85570579 1710.60676358 71.1527085 1706.05078125 76.44921875 C1699.80572679 83.71031003 1693.6036885 91.00553429 1687.5625 98.4375 C1683.15086945 103.85570579 1678.60676358 109.1527085 1674.05078125 114.44921875 C1667.80572679 121.71031003 1661.6036885 129.00553429 1655.5625 136.4375 C1651.15086945 141.85570579 1646.60676358 147.1527085 1642.05078125 152.44921875 C1635.80572679 159.71031003 1629.6036885 167.00553429 1623.5625 174.4375 C1619.15086945 179.85570579 1614.60676358 185.1527085 1610.05078125 190.44921875 C1603.80572679 197.71031003 1597.6036885 205.00553429 1591.5625 212.4375 C1587.15086945 217.85570579 1582.60676358 223.1527085 1578.05078125 228.44921875 C1571.80572679 235.71031003 1565.6036885 243.00553429 1559.5625 250.4375 C1555.15086945 255.85570579 1550.60676358 261.1527085 1546.05078125 266.44921875 C1539.80572679 273.71031003 1533.6036885 281.00553429 1527.5625 288.4375 C1523.15086945 293.85570579 1518.60676358 299.1527085 1514.05078125 304.44921875 C1507.80572679 311.71031003 1501.6036885 319.00553429 1495.5625 326.4375 C1491.15086945 331.85570579 1486.60676358 337.1527085 1482.05078125 342.44921875 C1475.80572679 349.71031003 1469.6036885 357.00553429 1463.5625 364.4375 C1459.15086945 369.85570579 1454.60676358 375.1527085 1450.05078125 380.44921875 C1443.80572679 387.71031003 1437.6036885 395.00553429 1431.5625 402.4375 C1427.15086945 407.85570579 1422.60676358 413.1527085 1418.05078125 418.44921875 C1411.80572679 425.71031003 1405.6036885 433.00553429 1399.5625 440.4375 C1395.15086945 445.85570579 1390.60676358 451.1527085 1386.05078125 456.44921875 C1379.80572679 463.71031003 1373.6036885 471.00553429 1367.5625 478.4375 C1363.15086945 483.85570579 1358.60676358 489.1527085 1354.05078125 494.44921875 C1347.80572679 501.71031003 1341.6036885 509.00553429 1335.5625 516.4375 C1331.15086945 521.85570579 1326.60676358 527.1527085 1322.05078125 532.44921875 C1315.80572679 539.71031003 1309.6036885 547.00553429 1303.5625 554.4375 C1299.15086945 559.85570579 1294.60676358 565.1527085 1290.05078125 570.44921875 C1283.80572679 577.71031003 1277.6036885 585.00553429 1271.5625 592.4375 C1267.15086945 597.85570579 1262.60676358 603.1527085 1258.05078125 608.44921875 C1251.80572679 615.71031003 1245.6036885 623.00553429 1239.5625 630.4375 C1235.15086945 635.85570579 1230.60676358 641.1527085 1226.05078125 646.44921875 C1219.80572679 653.71031003 1213.6036885 661.00553429 1207.5625 668.4375 C1203.15086945 673.85570579 1198.60676358 679.1527085 1194.05078125 684.44921875 C1187.80572679 691.71031003 1181.6036885 699.00553429 1175.5625 706.4375 C1171.15086945 711.85570579 1166.60676358 717.1527085 1162.05078125 722.44921875 C1155.80572679 729.71031003 1149.6036885 737.00553429 1143.5625 744.4375 C1139.15086945 749.85570579 1134.60676358 755.1527085 1130.05078125 760.44921875 C1123.80572679 767.71031003 1117.6036885 775.00553429 1111.5625 782.4375 C1107.15086945 787.85570579 1102.60676358 793.1527085 1098.05078125 798.44921875 C1091.80572679 805.71031003 1085.6036885 813.00553429 1079.5625 820.4375 C1075.15086945 825.85570579 1070.60676358 831.1527085 1066.05078125 836.44921875 C1059.80572679 843.71031003 1053.6036885 851.00553429 1047.5625 858.4375 C1043.15086945 863.85570579 1038.60676358 869.1527085 1034.05078125 874.44921875 C1027.80572679 881.71031003 1021.6036885 889.00553429 1015.5625 896.4375 C1011.15086945 901.85570579 1006.60676358 907.1527085 1002.05078125 912.44921875 C995.80572679 919.71031003 989.6036885 927.00553429 983.5625 934.4375 C979.15086945 939.85570579 974.60676358 945.1527085 970.05078125 950.44921875 C963.80572679 957.71031003 957.6036885 965.00553429 951.5625 972.4375 C947.15086945 977.85570579 942.60676358 983.1527085 938.05078125 988.44921875 C931.80572679 995.71031003 925.6036885 1003.00553429 919.5625 1010.4375 C915.15086945 1015.85570579 910.60676358 1021.1527085 906.05078125 1026.44921875 C899.80572679 1033.71031003 893.6036885 1041.00553429 887.5625 1048.4375 C883.15086945 1053.85570579 878.60676358 1059.1527085 874.05078125 1064.44921875 C867.80572679 1071.71031003 861.6036885 1079.00553429 855.5625 1086.4375 C851.15086945 1091.85570579 846.60676358 1097.1527085 842.05078125 1102.44921875 C835.80572679 1109.71031003 829.6036885 1117.00553429 823.5625 1124.4375 C819.15086945 1129.85570579 814.60676358 1135.1527085 810.05078125 1140.44921875 C803.80572679 1147.71031003 797.6036885 1155.00553429 791.5625 1162.4375 C787.15086945 1167.85570579 782.60676358 1173.1527085 778.05078125 1178.44921875 C771.80572679 1185.71031003 765.6036885 1193.00553429 759.5625 1200.4375 C755.15086945 1205.85570579 750.60676358 1211.1527085 746.05078125 1216.44921875 C739.80572679 1223.71031003 733.6036885 1231.00553429 727.5625 1238.4375 C723.15086945 1243.85570579 718.60676358 1249.1527085 714.05078125 1254.44921875 C707.80572679 1261.71031003 701.6036885 1269.00553429 695.5625 1276.4375 C691.15086945 1281.85570579 686.60676358 1287.1527085 682.05078125 1292.44921875 C675.80572679 1299.71031003 669.6036885 1307.00553429 663.5625 1314.4375 C659.15086945 1319.85570579 654.60676358 1325.1527085 650.05078125 1330.44921875 C643.80572679 1337.71031003 637.6036885 1345.00553429 631.5625 1352.4375 C627.15086945 1357.85570579 622.60676358 1363.1527085 618.05078125 1368.44921875 C611.80572679 1375.71031003 605.6036885 1383.00553429 599.5625 1390.4375 C595.15086945 1395.85570579 590.60676358 1401.1527085 586.05078125 1406.44921875 C579.80572679 1413.71031003 573.6036885 1421.00553429 567.5625 1428.4375 C563.15086945 1433.85570579 558.60676358 1439.1527085 554.05078125 1444.44921875 C547.80572679 1451.71031003 541.6036885 1459.00553429 535.5625 1466.4375 C531.15086945 1471.85570579 526.60676358 1477.1527085 522.05078125 1482.44921875 C515.80572679 1489.71031003 509.6036885 1497.00553429 503.5625 1504.4375 C499.15086945 1509.85570579 494.60676358 1515.1527085 490.05078125 1520.44921875 C483.80572679 1527.71031003 477.6036885 1535.00553429 471.5625 1542.4375 C467.15086945 1547.85570579 462.60676358 1553.1527085 458.05078125 1558.44921875 C451.80572679 1565.71031003 445.6036885 1573.00553429 439.5625 1580.4375 C435.15086945 1585.85570579 430.60676358 1591.1527085 426.05078125 1596.44921875 C419.80572679 1603.71031003 413.6036885 1611.00553429 407.5625 1618.4375 C403.15086945 1623.85570579 398.60676358 1629.1527085 394.05078125 1634.44921875 C387.80572679 1641.71031003 381.6036885 1649.00553429 375.5625 1656.4375 C371.15086945 1661.85570579 366.60676358 1667.1527085 362.05078125 1672.44921875 C355.80572679 1679.71031003 349.6036885 1687.00553429 343.5625 1694.4375 C339.15086945 1699.85570579 334.60676358 1705.1527085 330.05078125 1710.44921875 C323.80572679 1717.71031003 317.6036885 1725.00553429 311.5625 1732.4375 C307.15086945 1737.85570579 302.60676358 1743.1527085 298.05078125 1748.44921875 C291.80572679 1755.71031003 285.6036885 1763.00553429 279.5625 1770.4375 C275.15086945 1775.85570579 270.60676358 1781.1527085 266.05078125 1786.44921875 C259.80572679 1793.71031003 253.6036885 1801.00553429 247.5625 1808.4375 C243.15086945 1813.85570579 238.60676358 1819.1527085 234.05078125 1824.44921875 C227.80572679 1831.71031003 221.6036885 1839.00553429 215.5625 1846.4375 C211.15086945 1851.85570579 206.60676358 1857.1527085 202.05078125 1862.44921875 C195.80572679 1869.71031003 189.6036885 1877.00553429 183.5625 1884.4375 C179.15086945 1889.85570579 174.60676358 1895.1527085 170.05078125 1900.44921875 C163.80572679 1907.71031003 157.6036885 1915.00553429 151.5625 1922.4375 C147.15086945 1927.85570579 142.60676358 1933.1527085 138.05078125 1938.44921875 C131.80572679 1945.71031003 125.6036885 1953.00553429 119.5625 1960.4375 C115.15086945 1965.85570579 110.60676358 1971.1527085 106.05078125 1976.44921875 C99.80572679 1983.71031003 93.6036885 1991.00553429 87.5625 1998.4375 C83.15086945 2003.85570579 78.60676358 2009.1527085 74.05078125 2014.44921875 C67.80572679 2021.71031003 61.6036885 2029.00553429 55.5625 2036.4375 C51.15086945 2041.85570579 46.60676358 2047.1527085 42.05078125 2052.44921875 C35.80572679 2059.71031003 29.6036885 2067.00553429 23.5625 2074.4375 C19.15086945 2079.85570579 14.60676358 2085.1527085 10.05078125 2090.44921875 C3.80572679 2097.71031003 -2.3963115 2105.00553429 -8.4375 2112.4375 C-12.84913055 2117.85570579 -17.39323642 2123.1527085 -21.94921875 2128.44921875 C-28.19427321 2135.71031003 -34.3963115 2143.00553429 -40.4375 2150.4375 C-44.38655333 2155.29080883 -48.44765895 2160.03847089 -52.53198242 2164.77758789 C-57.11679794 2170.1086828 -61.58019183 2175.53104545 -66 2181 C-66.33 2180.34 -66.66 2179.68 -67 2179 C-66.20239258 2177.31445312 -66.20239258 2177.31445312 -64.89453125 2175.28125 C-64.17124634 2174.14550537 -64.17124634 2174.14550537 -63.43334961 2172.98681641 C-62.89846924 2172.16616699 -62.36358887 2171.34551758 -61.8125 2170.5 C-61.26150635 2169.64196777 -60.7105127 2168.78393555 -60.14282227 2167.89990234 C-56.15201111 2161.70865676 -52.08358837 2155.56931162 -47.97998047 2149.45239258 C-43.24852127 2142.39714138 -38.58893842 2135.29560753 -33.9375 2128.1875 C-33.53385223 2127.5707843 -33.13020447 2126.9540686 -32.71432495 2126.31866455 C-30.63839565 2123.14679883 -28.56295831 2119.97461166 -26.48779297 2116.80224609 C-22.8882586 2111.30006304 -19.28425112 2105.80081133 -15.68045044 2100.30142212 C-13.70343806 2097.28440954 -11.72673516 2094.26719421 -9.75 2091.25 C-8.95833481 2090.0416657 -8.16666814 2088.83333237 -7.375 2087.625 C-6.7871875 2086.7278125 -6.7871875 2086.7278125 -6.1875 2085.8125 C-2.62499931 2080.37499895 -2.62499931 2080.37499895 -1.43746948 2078.56245422 C-0.64590356 2077.35427412 0.14566138 2076.14609338 0.93722534 2074.93791199 C2.91792533 2071.91472894 4.89864244 2068.89155711 6.87939453 2065.8684082 C10.42361272 2060.45896278 13.96771929 2055.04944443 17.51116943 2049.63949585 C26.61101514 2035.74636761 35.71700667 2021.85730001 44.83044434 2007.9730835 C53.44684618 1994.84583498 62.05356752 1981.71226277 70.65722656 1968.57666016 C74.20779351 1963.15594019 77.75917602 1957.73575454 81.31048584 1952.31552124 C83.29035624 1949.29370202 85.27017557 1946.27184934 87.25 1943.25 C88.04166642 1942.04166651 88.83333309 1940.83333317 89.625 1939.625 C90.2128125 1938.7278125 90.2128125 1938.7278125 90.8125 1937.8125 C113.3749998 1903.3750003 113.3749998 1903.3750003 114.56253052 1901.56245422 C115.35409644 1900.35427412 116.14566138 1899.14609338 116.93722534 1897.93791199 C118.91792533 1894.91472894 120.89864244 1891.89155711 122.87939453 1888.8684082 C126.42361272 1883.45896278 129.96771929 1878.04944443 133.51116943 1872.63949585 C142.61101514 1858.74636761 151.71700667 1844.85730001 160.83044434 1830.9730835 C169.44684618 1817.84583498 178.05356752 1804.71226277 186.65722656 1791.57666016 C190.20779351 1786.15594019 193.75917602 1780.73575454 197.31048584 1775.31552124 C199.29035624 1772.29370202 201.27017557 1769.27184934 203.25 1766.25 C204.04166642 1765.04166651 204.83333309 1763.83333317 205.625 1762.625 C206.016875 1762.026875 206.40875 1761.42875 206.8125 1760.8125 C229.37500053 1726.37499919 229.37500053 1726.37499919 230.56253052 1724.56245422 C231.35409644 1723.35427412 232.14566138 1722.14609338 232.93722534 1720.93791199 C234.91792533 1717.91472894 236.89864244 1714.89155711 238.87939453 1711.8684082 C242.42361272 1706.45896278 245.96771929 1701.04944443 249.51116943 1695.63949585 C258.61101514 1681.74636761 267.71700667 1667.85730001 276.83044434 1653.9730835 C285.44684618 1640.84583498 294.05356752 1627.71226277 302.65722656 1614.57666016 C306.20779351 1609.15594019 309.75917602 1603.73575454 313.31048584 1598.31552124 C315.29035624 1595.29370202 317.27017557 1592.27184934 319.25 1589.25 C320.04166642 1588.04166651 320.83333309 1586.83333317 321.625 1585.625 C322.016875 1585.026875 322.40875 1584.42875 322.8125 1583.8125 C345.37499957 1549.37500065 345.37499957 1549.37500065 346.56253052 1547.56245422 C347.35409644 1546.35427412 348.14566138 1545.14609338 348.93722534 1543.93791199 C350.91792533 1540.91472894 352.89864244 1537.89155711 354.87939453 1534.8684082 C358.42361272 1529.45896278 361.96771929 1524.04944443 365.51116943 1518.63949585 C374.61101514 1504.74636761 383.71700667 1490.85730001 392.83044434 1476.9730835 C401.44684618 1463.84583498 410.05356752 1450.71226277 418.65722656 1437.57666016 C422.20779351 1432.15594019 425.75917602 1426.73575454 429.31048584 1421.31552124 C431.29035624 1418.29370202 433.27017557 1415.27184934 435.25 1412.25 C436.04166642 1411.04166651 436.83333309 1409.83333317 437.625 1408.625 C438.016875 1408.026875 438.40875 1407.42875 438.8125 1406.8125 C461.37500017 1372.37499974 461.37500017 1372.37499974 462.56253052 1370.56245422 C463.35409644 1369.35427412 464.14566138 1368.14609338 464.93722534 1366.93791199 C466.91792533 1363.91472894 468.89864244 1360.89155711 470.87939453 1357.8684082 C474.42361272 1352.45896278 477.96771929 1347.04944443 481.51116943 1341.63949585 C490.61101514 1327.74636761 499.71700667 1313.85730001 508.83044434 1299.9730835 C517.44684618 1286.84583498 526.05356752 1273.71226277 534.65722656 1260.57666016 C538.20779351 1255.15594019 541.75917602 1249.73575454 545.31048584 1244.31552124 C547.29035624 1241.29370202 549.27017557 1238.27184934 551.25 1235.25 C552.04166642 1234.04166651 552.83333309 1232.83333317 553.625 1231.625 C554.2128125 1230.7278125 554.2128125 1230.7278125 554.8125 1229.8125 C577.37500017 1195.37499974 577.37500017 1195.37499974 578.56253052 1193.56245422 C579.35409644 1192.35427412 580.14566138 1191.14609338 580.93722534 1189.93791199 C582.91792533 1186.91472894 584.89864244 1183.89155711 586.87939453 1180.8684082 C590.42361272 1175.45896278 593.96771929 1170.04944443 597.51116943 1164.63949585 C606.61101514 1150.74636761 615.71700667 1136.85730001 624.83044434 1122.9730835 C633.44684618 1109.84583498 642.05356752 1096.71226277 650.65722656 1083.57666016 C654.20779351 1078.15594019 657.75917602 1072.73575454 661.31048584 1067.31552124 C663.29035624 1064.29370202 665.27017557 1061.27184934 667.25 1058.25 C668.04166642 1057.04166651 668.83333309 1055.83333317 669.625 1054.625 C670.2128125 1053.7278125 670.2128125 1053.7278125 670.8125 1052.8125 C693.37499964 1018.37500055 693.37499964 1018.37500055 694.56253052 1016.56245422 C695.35409644 1015.35427412 696.14566138 1014.14609338 696.93722534 1012.93791199 C698.91792533 1009.91472894 700.89864244 1006.89155711 702.87939453 1003.8684082 C706.42361272 998.45896278 709.96771929 993.04944443 713.51116943 987.63949585 C722.61101514 973.74636761 731.71700667 959.85730001 740.83044434 945.9730835 C749.44684618 932.84583498 758.05356752 919.71226277 766.65722656 906.57666016 C770.20779351 901.15594019 773.75917602 895.73575454 777.31048584 890.31552124 C779.29035624 887.29370202 781.27017557 884.27184934 783.25 881.25 C784.04166642 880.04166651 784.83333309 878.83333317 785.625 877.625 C786.2128125 876.7278125 786.2128125 876.7278125 786.8125 875.8125 C828.37499976 812.37500037 828.37499976 812.37500037 829.56253052 810.56245422 C830.35409644 809.35427412 831.14566138 808.14609338 831.93722534 806.93791199 C833.91792533 803.91472894 835.89864244 800.89155711 837.87939453 797.8684082 C841.42361272 792.45896278 844.96771929 787.04944443 848.51116943 781.63949585 C857.61101514 767.74636761 866.71700667 753.85730001 875.83044434 739.9730835 C884.44684618 726.84583498 893.05356752 713.71226277 901.65722656 700.57666016 C905.20779351 695.15594019 908.75917602 689.73575454 912.31048584 684.31552124 C914.29035624 681.29370202 916.27017557 678.27184934 918.25 675.25 C919.04166642 674.04166651 919.83333309 672.83333317 920.625 671.625 C921.2128125 670.7278125 921.2128125 670.7278125 921.8125 669.8125 C944.37500016 635.37499975 944.37500016 635.37499975 945.56253052 633.56245422 C946.35409644 632.35427412 947.14566138 631.14609338 947.93722534 629.93791199 C949.91792533 626.91472894 951.89864244 623.89155711 953.87939453 620.8684082 C957.42361272 615.45896278 960.96771929 610.04944443 964.51116943 604.63949585 C973.61101514 590.74636761 982.71700667 576.85730001 991.83044434 562.9730835 C1000.44684618 549.84583498 1009.05356752 536.71226277 1017.65722656 523.57666016 C1021.20779351 518.15594019 1024.75917602 512.73575454 1028.31048584 507.31552124 C1030.29035624 504.29370202 1032.27017557 501.27184934 1034.25 498.25 C1035.04166642 497.04166651 1035.83333309 495.83333317 1036.625 494.625 C1037.016875 494.026875 1037.40875 493.42875 1037.8125 492.8125 C1060.37500012 458.37499982 1060.37500012 458.37499982 1061.56253052 456.56245422 C1062.35409644 455.35427412 1063.14566138 454.14609338 1063.93722534 452.93791199 C1065.91792533 449.91472894 1067.89864244 446.89155711 1069.87939453 443.8684082 C1073.42361272 438.45896278 1076.96771929 433.04944443 1080.51116943 427.63949585 C1089.61101514 413.74636761 1098.71700667 399.85730001 1107.83044434 385.9730835 C1116.44684618 372.84583498 1125.05356752 359.71226277 1133.65722656 346.57666016 C1136.01860416 342.97149881 1138.38034358 339.3665746 1140.7421875 335.76171875 C1141.33189583 334.86165352 1141.33189583 334.86165352 1141.93351746 333.94340515 C1143.51264514 331.53321726 1145.0917869 329.12303858 1146.67092896 326.71286011 C1150.78045743 320.4406368 1154.88984627 314.16832219 1158.99856567 307.89556885 C1160.76167807 305.20385813 1162.52487849 302.51220509 1164.28808594 299.82055664 C1165.13106628 298.53363894 1165.97400318 297.24669279 1166.81689453 295.9597168 C1167.9832895 294.17880231 1169.14983218 292.39798467 1170.31640625 290.6171875 C1170.98099854 289.60253418 1171.64559082 288.58788086 1172.33032227 287.54248047 C1173.54660171 285.69040646 1174.77092733 283.84360901 1176 282 C859.53 282 543.06 282 217 282 C211.72 296.85 206.44 311.7 201 327 C183.00000003 377.62499992 183.00000003 377.62499992 181.99993896 380.43766785 C181.33347254 382.31210722 180.66700932 384.18654773 180.00054932 386.06098938 C178.33084534 390.75707641 176.66108508 395.4531434 174.99121094 400.14916992 C172.02739859 408.4841826 169.06391061 416.81930947 166.10264587 425.15522766 C164.48538622 429.70775447 162.86778983 434.26016157 161.25 438.8125 C160.92611298 439.7238974 160.60222595 440.6352948 160.26852417 441.5743103 C154.97581481 456.46516682 149.66212587 471.34847502 144.34301758 486.22991943 C136.91491051 507.01197856 129.51537152 527.80379589 122.15478516 548.60986328 C121.46387768 550.56282923 120.77295977 552.51579149 120.08203125 554.46875 C119.74324951 555.42635223 119.40446777 556.38395447 119.05541992 557.37057495 C113.70737148 572.48328448 108.33013493 587.5856354 102.95626831 602.68917847 C100.68395324 609.07602365 98.41372009 615.46360599 96.14453125 621.8515625 C89.22884454 641.31752789 82.29602855 660.77725172 75.34301758 680.22991943 C67.91491051 701.01197856 60.51537152 721.80379589 53.15478516 742.60986328 C52.46387768 744.56282923 51.77295977 746.51579149 51.08203125 748.46875 C50.57385864 749.90515335 50.57385864 749.90515335 50.05541992 751.37057495 C44.71804953 766.45311005 39.35147787 781.5252789 33.98799133 796.59854126 C31.62174592 803.24950505 29.25938655 809.90184199 26.8984375 816.5546875 C23.8995242 825.00497203 20.89515405 833.45329432 17.88465881 841.89945984 C16.27538636 846.41512562 14.668974 850.93176794 13.06884766 855.45068359 C11.54561508 859.752377 10.0156851 864.0516273 8.4805603 868.34909058 C7.91454222 869.93747442 7.35104477 871.52675896 6.79019165 873.11697388 C6.0256475 875.28355354 5.2522904 877.44677929 4.4765625 879.609375 C4.04424316 880.82592773 3.61192383 882.04248047 3.16650391 883.29589844 C2 886 2 886 0 887 C0 594.29 0 301.58 0 0 Z " fill="#CA1F1F" transform="translate(567,454)"/>
<path d="M0 0 C0.33 0.66 0.66 1.32 1 2 C0.20239258 3.68554688 0.20239258 3.68554688 -1.10546875 5.71875 C-1.58765869 6.47591309 -2.06984863 7.23307617 -2.56665039 8.01318359 C-3.10153076 8.83383301 -3.63641113 9.65448242 -4.1875 10.5 C-5.01399048 11.78704834 -5.01399048 11.78704834 -5.85717773 13.10009766 C-9.84798889 19.29134324 -13.91641163 25.43068838 -18.02001953 31.54760742 C-22.75147873 38.60285862 -27.41106158 45.70439247 -32.0625 52.8125 C-32.46614777 53.4292157 -32.86979553 54.0459314 -33.28567505 54.68133545 C-35.36160435 57.85320117 -37.43704169 61.02538834 -39.51220703 64.19775391 C-43.1117414 69.69993696 -46.71574888 75.19918867 -50.31954956 80.69857788 C-52.29656194 83.71559046 -54.27326484 86.73280579 -56.25 89.75 C-57.04166519 90.9583343 -57.83333186 92.16666763 -58.625 93.375 C-59.016875 93.973125 -59.40875 94.57125 -59.8125 95.1875 C-63.37499994 100.6249999 -63.37499994 100.6249999 -64.56253052 102.43754578 C-65.35409644 103.64572588 -66.14566138 104.85390662 -66.93722534 106.06208801 C-68.91792533 109.08527106 -70.89864244 112.10844289 -72.87939453 115.1315918 C-76.42361272 120.54103722 -79.96771929 125.95055557 -83.51116943 131.36050415 C-92.61101514 145.25363239 -101.71700667 159.14269999 -110.83044434 173.0269165 C-119.44684618 186.15416502 -128.05356752 199.28773723 -136.65722656 212.42333984 C-140.20779351 217.84405981 -143.75917602 223.26424546 -147.31048584 228.68447876 C-149.29035624 231.70629798 -151.27017557 234.72815066 -153.25 237.75 C-154.04166642 238.95833349 -154.83333309 240.16666683 -155.625 241.375 C-156.2128125 242.2721875 -156.2128125 242.2721875 -156.8125 243.1875 C-179.37500018 277.62500028 -179.37500018 277.62500028 -180.56253052 279.43754578 C-181.35409644 280.64572588 -182.14566138 281.85390662 -182.93722534 283.06208801 C-184.91792533 286.08527106 -186.89864244 289.10844289 -188.87939453 292.1315918 C-192.42361272 297.54103722 -195.96771929 302.95055557 -199.51116943 308.36050415 C-208.61101514 322.25363239 -217.71700667 336.14269999 -226.83044434 350.0269165 C-235.44684618 363.15416502 -244.05356752 376.28773723 -252.65722656 389.42333984 C-256.20779351 394.84405981 -259.75917602 400.26424546 -263.31048584 405.68447876 C-265.29035624 408.70629798 -267.27017557 411.72815066 -269.25 414.75 C-270.04166642 415.95833349 -270.83333309 417.16666683 -271.625 418.375 C-272.016875 418.973125 -272.40875 419.57125 -272.8125 420.1875 C-295.37500036 454.62500055 -295.37500036 454.62500055 -296.56253052 456.43754578 C-297.35409644 457.64572588 -298.14566138 458.85390662 -298.93722534 460.06208801 C-300.91792533 463.08527106 -302.89864244 466.10844289 -304.87939453 469.1315918 C-308.42361272 474.54103722 -311.96771929 479.95055557 -315.51116943 485.36050415 C-324.61101514 499.25363239 -333.71700667 513.14269999 -342.83044434 527.0269165 C-351.44684618 540.15416502 -360.05356752 553.28773723 -368.65722656 566.42333984 C-372.20779351 571.84405981 -375.75917602 577.26424546 -379.31048584 582.68447876 C-381.29035624 585.70629798 -383.27017557 588.72815066 -385.25 591.75 C-386.04166642 592.95833349 -386.83333309 594.16666683 -387.625 595.375 C-388.2128125 596.2721875 -388.2128125 596.2721875 -388.8125 597.1875 C-411.37499921 631.62499879 -411.37499921 631.62499879 -412.56253052 633.43754578 C-413.35409644 634.64572588 -414.14566138 635.85390662 -414.93722534 637.06208801 C-416.91792533 640.08527106 -418.89864244 643.10844289 -420.87939453 646.1315918 C-424.42361272 651.54103722 -427.96771929 656.95055557 -431.51116943 662.36050415 C-440.61101514 676.25363239 -449.71700667 690.14269999 -458.83044434 704.0269165 C-467.44684618 717.15416502 -476.05356752 730.28773723 -484.65722656 743.42333984 C-488.20779351 748.84405981 -491.75917602 754.26424546 -495.31048584 759.68447876 C-497.29035624 762.70629798 -499.27017557 765.72815066 -501.25 768.75 C-502.04166642 769.95833349 -502.83333309 771.16666683 -503.625 772.375 C-504.2128125 773.2721875 -504.2128125 773.2721875 -504.8125 774.1875 C-527.37500017 808.62500026 -527.37500017 808.62500026 -528.56253052 810.43754578 C-529.35409644 811.64572588 -530.14566138 812.85390662 -530.93722534 814.06208801 C-532.91792533 817.08527106 -534.89864244 820.10844289 -536.87939453 823.1315918 C-540.42361272 828.54103722 -543.96771929 833.95055557 -547.51116943 839.36050415 C-556.61101514 853.25363239 -565.71700667 867.14269999 -574.83044434 881.0269165 C-583.44684618 894.15416502 -592.05356752 907.28773723 -600.65722656 920.42333984 C-604.20779351 925.84405981 -607.75917602 931.26424546 -611.31048584 936.68447876 C-613.29035624 939.70629798 -615.27017557 942.72815066 -617.25 945.75 C-618.04166642 946.95833349 -618.83333309 948.16666683 -619.625 949.375 C-620.2128125 950.2721875 -620.2128125 950.2721875 -620.8125 951.1875 C-643.37499972 985.62499957 -643.37499972 985.62499957 -644.56253052 987.43754578 C-645.35409644 988.64572588 -646.14566138 989.85390662 -646.93722534 991.06208801 C-648.91792533 994.08527106 -650.89864244 997.10844289 -652.87939453 1000.1315918 C-656.42361272 1005.54103722 -659.96771929 1010.95055557 -663.51116943 1016.36050415 C-672.61101514 1030.25363239 -681.71700667 1044.14269999 -690.83044434 1058.0269165 C-699.44684618 1071.15416502 -708.05356752 1084.28773723 -716.65722656 1097.42333984 C-720.20779351 1102.84405981 -723.75917602 1108.26424546 -727.31048584 1113.68447876 C-729.29035624 1116.70629798 -731.27017557 1119.72815066 -733.25 1122.75 C-734.04166642 1123.95833349 -734.83333309 1125.16666683 -735.625 1126.375 C-736.2128125 1127.2721875 -736.2128125 1127.2721875 -736.8125 1128.1875 C-759.37499964 1162.62499945 -759.37499964 1162.62499945 -760.56253052 1164.43754578 C-761.35409644 1165.64572588 -762.14566138 1166.85390662 -762.93722534 1168.06208801 C-764.91792533 1171.08527106 -766.89864244 1174.10844289 -768.87939453 1177.1315918 C-772.42361272 1182.54103722 -775.96771929 1187.95055557 -779.51116943 1193.36050415 C-788.61101514 1207.25363239 -797.71700667 1221.14269999 -806.83044434 1235.0269165 C-815.44684618 1248.15416502 -824.05356752 1261.28773723 -832.65722656 1274.42333984 C-836.20779351 1279.84405981 -839.75917602 1285.26424546 -843.31048584 1290.68447876 C-845.29035624 1293.70629798 -847.27017557 1296.72815066 -849.25 1299.75 C-850.04166642 1300.95833349 -850.83333309 1302.16666683 -851.625 1303.375 C-852.2128125 1304.2721875 -852.2128125 1304.2721875 -852.8125 1305.1875 C-875.37500018 1339.62500028 -875.37500018 1339.62500028 -876.56253052 1341.43754578 C-877.35409644 1342.64572588 -878.14566138 1343.85390662 -878.93722534 1345.06208801 C-880.91792533 1348.08527106 -882.89864244 1351.10844289 -884.87939453 1354.1315918 C-888.42361272 1359.54103722 -891.96771929 1364.95055557 -895.51116943 1370.36050415 C-904.61101514 1384.25363239 -913.71700667 1398.14269999 -922.83044434 1412.0269165 C-931.44684618 1425.15416502 -940.05356752 1438.28773723 -948.65722656 1451.42333984 C-952.20779351 1456.84405981 -955.75917602 1462.26424546 -959.31048584 1467.68447876 C-961.29035624 1470.70629798 -963.27017557 1473.72815066 -965.25 1476.75 C-966.04166642 1477.95833349 -966.83333309 1479.16666683 -967.625 1480.375 C-968.2128125 1481.2721875 -968.2128125 1481.2721875 -968.8125 1482.1875 C-991.37499941 1516.6249991 -991.37499941 1516.6249991 -992.56253052 1518.43754578 C-993.35409644 1519.64572588 -994.14566138 1520.85390662 -994.93722534 1522.06208801 C-996.91792533 1525.08527106 -998.89864244 1528.10844289 -1000.87939453 1531.1315918 C-1004.42361272 1536.54103722 -1007.96771929 1541.95055557 -1011.51116943 1547.36050415 C-1020.61101514 1561.25363239 -1029.71700667 1575.14269999 -1038.83044434 1589.0269165 C-1047.44684618 1602.15416502 -1056.05356752 1615.28773723 -1064.65722656 1628.42333984 C-1068.20779351 1633.84405981 -1071.75917602 1639.26424546 -1075.31048584 1644.68447876 C-1077.29035624 1647.70629798 -1079.27017557 1650.72815066 -1081.25 1653.75 C-1082.04166642 1654.95833349 -1082.83333309 1656.16666683 -1083.625 1657.375 C-1084.2128125 1658.2721875 -1084.2128125 1658.2721875 -1084.8125 1659.1875 C-1107.37500014 1693.62500021 -1107.37500014 1693.62500021 -1108.56253052 1695.43754578 C-1109.35409644 1696.64572588 -1110.14566138 1697.85390662 -1110.93722534 1699.06208801 C-1112.91792533 1702.08527106 -1114.89864244 1705.10844289 -1116.87939453 1708.1315918 C-1120.42361272 1713.54103722 -1123.96771929 1718.95055557 -1127.51116943 1724.36050415 C-1136.61101514 1738.25363239 -1145.71700667 1752.14269999 -1154.83044434 1766.0269165 C-1163.44684618 1779.15416502 -1172.05356752 1792.28773723 -1180.65722656 1805.42333984 C-1184.20779351 1810.84405981 -1187.75917602 1816.26424546 -1191.31048584 1821.68447876 C-1193.29035624 1824.70629798 -1195.27017557 1827.72815066 -1197.25 1830.75 C-1198.04166642 1831.95833349 -1198.83333309 1833.16666683 -1199.625 1834.375 C-1200.2128125 1835.2721875 -1200.2128125 1835.2721875 -1200.8125 1836.1875 C-1204.37499991 1841.62499987 -1204.37499991 1841.62499987 -1205.5622406 1843.43710327 C-1206.35477291 1844.64675839 -1207.14730424 1845.85641415 -1207.93983459 1847.06607056 C-1209.90574886 1850.06668583 -1211.8716796 1853.0672903 -1213.83764648 1856.06787109 C-1217.55825166 1861.74652878 -1221.2786775 1867.42530375 -1224.99856567 1873.10443115 C-1226.76167807 1875.79614187 -1228.52487849 1878.48779491 -1230.28808594 1881.17944336 C-1231.13106628 1882.46636106 -1231.97400318 1883.75330721 -1232.81689453 1885.0402832 C-1233.9832895 1886.82119769 -1235.14983218 1888.60201533 -1236.31640625 1890.3828125 C-1236.98099854 1891.39746582 -1237.64559082 1892.41211914 -1238.33032227 1893.45751953 C-1239.54660171 1895.30959354 -1240.77092733 1897.15639099 -1242 1899 C-925.53 1899 -609.06 1899 -283 1899 C-275.74 1878.54 -268.48 1858.08 -261 1837 C-253.5 1816 -253.5 1816 -249.953125 1806.08203125 C-246.90887636 1797.56320218 -243.88212824 1789.03819558 -240.859375 1780.51171875 C-240.52046077 1779.55575019 -240.52046077 1779.55575019 -240.17469978 1778.58046913 C-239.00822798 1775.29011958 -237.84187548 1771.99972774 -236.67556763 1768.70932007 C-236.44063221 1768.04651913 -236.20569679 1767.38371819 -235.96364212 1766.70083237 C-235.48779474 1765.35836827 -235.01195195 1764.01590255 -234.53611374 1762.67343521 C-227.91618689 1743.99774514 -221.26269373 1725.33458019 -214.5625 1706.6875 C-207.42147784 1686.81191766 -200.35082009 1666.91211956 -193.3125 1647 C-193.06699402 1646.30544079 -192.82148804 1645.61088158 -192.56854248 1644.89527512 C-191.34336258 1641.42902019 -190.11826999 1637.9627344 -188.89318848 1634.4964447 C-188.65485794 1633.82210829 -188.4165274 1633.14777187 -188.17097473 1632.45300102 C-187.69341129 1631.10175508 -187.21586199 1629.75050413 -186.73832703 1628.39924812 C-182.36022102 1616.01124103 -177.96697836 1603.62865552 -173.5625 1591.25 C-173.24463531 1590.35659912 -172.92677063 1589.46319824 -172.59927368 1588.54272461 C-171.02889855 1584.12928282 -169.45814964 1579.7159742 -167.88720703 1575.30273438 C-164.92527947 1566.9811743 -161.96692723 1558.65834278 -159.00814819 1550.33566284 C-158.00203417 1547.50572159 -156.99579059 1544.67582643 -155.98950195 1541.84594727 C-153.02623604 1533.51257045 -150.06333338 1525.17906562 -147.10264587 1516.84477234 C-145.48538622 1512.29224553 -143.86778983 1507.73983843 -142.25 1503.1875 C-141.92611298 1502.2761026 -141.60222595 1501.3647052 -141.26852417 1500.4256897 C-135.97581481 1485.53483318 -130.66212587 1470.65152498 -125.34301758 1455.77008057 C-118.61971963 1436.95990803 -111.91307172 1418.14409762 -105.25 1399.3125 C-104.90450104 1398.33610565 -104.55900208 1397.3597113 -104.20303345 1396.35372925 C-102.82498531 1392.45923835 -101.44697888 1388.56473268 -100.0690155 1384.67021179 C-94.68259285 1369.4486849 -89.28339557 1354.23171941 -83.85903931 1339.02366638 C-81.93956289 1333.64129318 -80.0271852 1328.2564639 -78.11975098 1322.86981201 C-76.9116505 1319.46286199 -75.69747527 1316.05810116 -74.48156738 1312.65393066 C-73.91513666 1311.06425983 -73.35120988 1309.47369435 -72.78991699 1307.88220215 C-72.02546762 1305.71589587 -71.25220251 1303.55294484 -70.4765625 1301.390625 C-70.04424316 1300.17407227 -69.61192383 1298.95751953 -69.16650391 1297.70410156 C-68 1295 -68 1295 -66 1294 C-66 1586.71 -66 1879.42 -66 2181 C-649.77 2181 -1233.54 2181 -1835 2181 C-1833.05295852 2177.10591704 -1830.75955786 2174.18241005 -1827.9375 2170.9375 C-1826.93412516 2169.76889043 -1825.93153143 2168.59960978 -1824.9296875 2167.4296875 C-1824.43178711 2166.84928711 -1823.93388672 2166.26888672 -1823.42089844 2165.67089844 C-1821.43117984 2163.33109877 -1819.49579403 2160.94902047 -1817.5625 2158.5625 C-1813.15086945 2153.14429421 -1808.60676358 2147.8472915 -1804.05078125 2142.55078125 C-1797.80572679 2135.28968997 -1791.6036885 2127.99446571 -1785.5625 2120.5625 C-1781.15086945 2115.14429421 -1776.60676358 2109.8472915 -1772.05078125 2104.55078125 C-1765.80572679 2097.28968997 -1759.6036885 2089.99446571 -1753.5625 2082.5625 C-1749.15086945 2077.14429421 -1744.60676358 2071.8472915 -1740.05078125 2066.55078125 C-1733.80572679 2059.28968997 -1727.6036885 2051.99446571 -1721.5625 2044.5625 C-1717.15086945 2039.14429421 -1712.60676358 2033.8472915 -1708.05078125 2028.55078125 C-1701.80572679 2021.28968997 -1695.6036885 2013.99446571 -1689.5625 2006.5625 C-1685.15086945 2001.14429421 -1680.60676358 1995.8472915 -1676.05078125 1990.55078125 C-1669.80572679 1983.28968997 -1663.6036885 1975.99446571 -1657.5625 1968.5625 C-1653.15086945 1963.14429421 -1648.60676358 1957.8472915 -1644.05078125 1952.55078125 C-1637.80572679 1945.28968997 -1631.6036885 1937.99446571 -1625.5625 1930.5625 C-1621.15086945 1925.14429421 -1616.60676358 1919.8472915 -1612.05078125 1914.55078125 C-1605.80572679 1907.28968997 -1599.6036885 1899.99446571 -1593.5625 1892.5625 C-1589.15086945 1887.14429421 -1584.60676358 1881.8472915 -1580.05078125 1876.55078125 C-1573.80572679 1869.28968997 -1567.6036885 1861.99446571 -1561.5625 1854.5625 C-1557.15086945 1849.14429421 -1552.60676358 1843.8472915 -1548.05078125 1838.55078125 C-1541.80572679 1831.28968997 -1535.6036885 1823.99446571 -1529.5625 1816.5625 C-1525.15086945 1811.14429421 -1520.60676358 1805.8472915 -1516.05078125 1800.55078125 C-1509.80572679 1793.28968997 -1503.6036885 1785.99446571 -1497.5625 1778.5625 C-1493.15086945 1773.14429421 -1488.60676358 1767.8472915 -1484.05078125 1762.55078125 C-1477.80572679 1755.28968997 -1471.6036885 1747.99446571 -1465.5625 1740.5625 C-1461.15086945 1735.14429421 -1456.60676358 1729.8472915 -1452.05078125 1724.55078125 C-1445.80572679 1717.28968997 -1439.6036885 1709.99446571 -1433.5625 1702.5625 C-1429.15086945 1697.14429421 -1424.60676358 1691.8472915 -1420.05078125 1686.55078125 C-1413.80572679 1679.28968997 -1407.6036885 1671.99446571 -1401.5625 1664.5625 C-1397.15086945 1659.14429421 -1392.60676358 1653.8472915 -1388.05078125 1648.55078125 C-1381.80572679 1641.28968997 -1375.6036885 1633.99446571 -1369.5625 1626.5625 C-1365.15086945 1621.14429421 -1360.60676358 1615.8472915 -1356.05078125 1610.55078125 C-1349.80572679 1603.28968997 -1343.6036885 1595.99446571 -1337.5625 1588.5625 C-1333.15086945 1583.14429421 -1328.60676358 1577.8472915 -1324.05078125 1572.55078125 C-1317.80572679 1565.28968997 -1311.6036885 1557.99446571 -1305.5625 1550.5625 C-1301.15086945 1545.14429421 -1296.60676358 1539.8472915 -1292.05078125 1534.55078125 C-1285.80572679 1527.28968997 -1279.6036885 1519.99446571 -1273.5625 1512.5625 C-1269.15086945 1507.14429421 -1264.60676358 1501.8472915 -1260.05078125 1496.55078125 C-1253.80572679 1489.28968997 -1247.6036885 1481.99446571 -1241.5625 1474.5625 C-1237.15086945 1469.14429421 -1232.60676358 1463.8472915 -1228.05078125 1458.55078125 C-1221.80572679 1451.28968997 -1215.6036885 1443.99446571 -1209.5625 1436.5625 C-1205.15086945 1431.14429421 -1200.60676358 1425.8472915 -1196.05078125 1420.55078125 C-1189.80572679 1413.28968997 -1183.6036885 1405.99446571 -1177.5625 1398.5625 C-1173.15086945 1393.14429421 -1168.60676358 1387.8472915 -1164.05078125 1382.55078125 C-1157.80572679 1375.28968997 -1151.6036885 1367.99446571 -1145.5625 1360.5625 C-1141.15086945 1355.14429421 -1136.60676358 1349.8472915 -1132.05078125 1344.55078125 C-1125.80572679 1337.28968997 -1119.6036885 1329.99446571 -1113.5625 1322.5625 C-1109.15086945 1317.14429421 -1104.60676358 1311.8472915 -1100.05078125 1306.55078125 C-1093.80572679 1299.28968997 -1087.6036885 1291.99446571 -1081.5625 1284.5625 C-1077.15086945 1279.14429421 -1072.60676358 1273.8472915 -1068.05078125 1268.55078125 C-1061.80572679 1261.28968997 -1055.6036885 1253.99446571 -1049.5625 1246.5625 C-1045.15086945 1241.14429421 -1040.60676358 1235.8472915 -1036.05078125 1230.55078125 C-1029.80572679 1223.28968997 -1023.6036885 1215.99446571 -1017.5625 1208.5625 C-1013.15086945 1203.14429421 -1008.60676358 1197.8472915 -1004.05078125 1192.55078125 C-997.80572679 1185.28968997 -991.6036885 1177.99446571 -985.5625 1170.5625 C-981.15086945 1165.14429421 -976.60676358 1159.8472915 -972.05078125 1154.55078125 C-965.80572679 1147.28968997 -959.6036885 1139.99446571 -953.5625 1132.5625 C-949.15086945 1127.14429421 -944.60676358 1121.8472915 -940.05078125 1116.55078125 C-933.80572679 1109.28968997 -927.6036885 1101.99446571 -921.5625 1094.5625 C-917.15086945 1089.14429421 -912.60676358 1083.8472915 -908.05078125 1078.55078125 C-901.80572679 1071.28968997 -895.6036885 1063.99446571 -889.5625 1056.5625 C-885.15086945 1051.14429421 -880.60676358 1045.8472915 -876.05078125 1040.55078125 C-869.80572679 1033.28968997 -863.6036885 1025.99446571 -857.5625 1018.5625 C-853.15086945 1013.14429421 -848.60676358 1007.8472915 -844.05078125 1002.55078125 C-837.80572679 995.28968997 -831.6036885 987.99446571 -825.5625 980.5625 C-821.15086945 975.14429421 -816.60676358 969.8472915 -812.05078125 964.55078125 C-805.80572679 957.28968997 -799.6036885 949.99446571 -793.5625 942.5625 C-789.15086945 937.14429421 -784.60676358 931.8472915 -780.05078125 926.55078125 C-773.80572679 919.28968997 -767.6036885 911.99446571 -761.5625 904.5625 C-757.15086945 899.14429421 -752.60676358 893.8472915 -748.05078125 888.55078125 C-741.80572679 881.28968997 -735.6036885 873.99446571 -729.5625 866.5625 C-725.15086945 861.14429421 -720.60676358 855.8472915 -716.05078125 850.55078125 C-709.80572679 843.28968997 -703.6036885 835.99446571 -697.5625 828.5625 C-693.15086945 823.14429421 -688.60676358 817.8472915 -684.05078125 812.55078125 C-677.80572679 805.28968997 -671.6036885 797.99446571 -665.5625 790.5625 C-661.15086945 785.14429421 -656.60676358 779.8472915 -652.05078125 774.55078125 C-645.80572679 767.28968997 -639.6036885 759.99446571 -633.5625 752.5625 C-629.15086945 747.14429421 -624.60676358 741.8472915 -620.05078125 736.55078125 C-613.80572679 729.28968997 -607.6036885 721.99446571 -601.5625 714.5625 C-597.15086945 709.14429421 -592.60676358 703.8472915 -588.05078125 698.55078125 C-581.80572679 691.28968997 -575.6036885 683.99446571 -569.5625 676.5625 C-565.15086945 671.14429421 -560.60676358 665.8472915 -556.05078125 660.55078125 C-549.80572679 653.28968997 -543.6036885 645.99446571 -537.5625 638.5625 C-533.15086945 633.14429421 -528.60676358 627.8472915 -524.05078125 622.55078125 C-517.80572679 615.28968997 -511.6036885 607.99446571 -505.5625 600.5625 C-501.15086945 595.14429421 -496.60676358 589.8472915 -492.05078125 584.55078125 C-485.80572679 577.28968997 -479.6036885 569.99446571 -473.5625 562.5625 C-469.15086945 557.14429421 -464.60676358 551.8472915 -460.05078125 546.55078125 C-453.80572679 539.28968997 -447.6036885 531.99446571 -441.5625 524.5625 C-437.15086945 519.14429421 -432.60676358 513.8472915 -428.05078125 508.55078125 C-421.80572679 501.28968997 -415.6036885 493.99446571 -409.5625 486.5625 C-405.15086945 481.14429421 -400.60676358 475.8472915 -396.05078125 470.55078125 C-389.80572679 463.28968997 -383.6036885 455.99446571 -377.5625 448.5625 C-373.15086945 443.14429421 -368.60676358 437.8472915 -364.05078125 432.55078125 C-357.80572679 425.28968997 -351.6036885 417.99446571 -345.5625 410.5625 C-341.15086945 405.14429421 -336.60676358 399.8472915 -332.05078125 394.55078125 C-325.80572679 387.28968997 -319.6036885 379.99446571 -313.5625 372.5625 C-309.15086945 367.14429421 -304.60676358 361.8472915 -300.05078125 356.55078125 C-293.80572679 349.28968997 -287.6036885 341.99446571 -281.5625 334.5625 C-277.15086945 329.14429421 -272.60676358 323.8472915 -268.05078125 318.55078125 C-261.80572679 311.28968997 -255.6036885 303.99446571 -249.5625 296.5625 C-245.15086945 291.14429421 -240.60676358 285.8472915 -236.05078125 280.55078125 C-229.80572679 273.28968997 -223.6036885 265.99446571 -217.5625 258.5625 C-213.15086945 253.14429421 -208.60676358 247.8472915 -204.05078125 242.55078125 C-197.80572679 235.28968997 -191.6036885 227.99446571 -185.5625 220.5625 C-181.15086945 215.14429421 -176.60676358 209.8472915 -172.05078125 204.55078125 C-165.80572679 197.28968997 -159.6036885 189.99446571 -153.5625 182.5625 C-149.15086945 177.14429421 -144.60676358 171.8472915 -140.05078125 166.55078125 C-133.80572679 159.28968997 -127.6036885 151.99446571 -121.5625 144.5625 C-117.15086945 139.14429421 -112.60676358 133.8472915 -108.05078125 128.55078125 C-101.80572679 121.28968997 -95.6036885 113.99446571 -89.5625 106.5625 C-85.15086945 101.14429421 -80.60676358 95.8472915 -76.05078125 90.55078125 C-69.80572679 83.28968997 -63.6036885 75.99446571 -57.5625 68.5625 C-53.15086945 63.14429421 -48.60676358 57.8472915 -44.05078125 52.55078125 C-37.80572679 45.28968997 -31.6036885 37.99446571 -25.5625 30.5625 C-21.61344667 25.70919117 -17.55234105 20.96152911 -13.46801758 16.22241211 C-8.88320206 10.8913172 -4.41980817 5.46895455 0 0 Z " fill="#272727" transform="translate(2499,365)"/>
<path d="M0 0 C0.33 0.66 0.66 1.32 1 2 C-0.24493748 4.28974316 -1.52641528 6.44190034 -2.9375 8.625 C-3.32357422 9.23601562 -3.70964844 9.84703125 -4.10742188 10.4765625 C-5.06446326 11.9889242 -6.03132811 13.49506117 -7 15 C-7.66 14.67 -8.32 14.34 -9 14 C-9.48210938 14.6496875 -9.96421875 15.299375 -10.4609375 15.96875 C-11.09257812 16.8040625 -11.72421875 17.639375 -12.375 18.5 C-13.00148438 19.3353125 -13.62796875 20.170625 -14.2734375 21.03125 C-14.84320312 21.6809375 -15.41296875 22.330625 -16 23 C-16.66 23 -17.32 23 -18 23 C-16.66970439 20.10158613 -15.17718212 17.85389702 -13.06640625 15.46875 C-12.49986328 14.82292969 -11.93332031 14.17710937 -11.34960938 13.51171875 C-10.46499023 12.51591797 -10.46499023 12.51591797 -9.5625 11.5 C-4.57870682 5.91502075 -4.57870682 5.91502075 0 0 Z " fill="#191919" transform="translate(2499,365)"/>
<path d="M0 0 C0.66 0.33 1.32 0.66 2 1 C1.41992188 1.64066406 0.83984375 2.28132813 0.2421875 2.94140625 C-4.24094975 7.90540806 -8.67445028 12.89806956 -13 18 C-13 14.06814483 -11.62226801 12.7090786 -9.3125 9.5625 C-8.62800781 8.61503906 -7.94351563 7.66757813 -7.23828125 6.69140625 C-5.0304352 4.0365966 -2.76722769 2.04997778 0 0 Z " fill="#B61313" transform="translate(522,2607)"/>
<path d="M0 0 C0.33 0.66 0.66 1.32 1 2 C-0.14453125 4.3828125 -0.14453125 4.3828125 -1.8125 7.125 C-2.35519531 8.03507812 -2.89789062 8.94515625 -3.45703125 9.8828125 C-3.96621094 10.58148438 -4.47539062 11.28015625 -5 12 C-5.66 12 -6.32 12 -7 12 C-6.67566492 6.64847115 -3.50295176 3.71719957 0 0 Z " fill="#232323" transform="translate(2499,365)"/>
<path d="M0 0 C0.99 0 1.98 0 3 0 C1.33248852 3.94139078 -1.22710649 6.7892812 -4 10 C-4.33 9.34 -4.66 8.68 -5 8 C-4.109375 6.0546875 -4.109375 6.0546875 -2.75 3.875 C-2.09257812 2.78832031 -2.09257812 2.78832031 -1.421875 1.6796875 C-0.95265625 1.12539062 -0.4834375 0.57109375 0 0 Z " fill="#C11717" transform="translate(505,2625)"/>
</svg>
